<svg id="Capa_1" data-name="Capa 1" xmlns="http://www.w3.org/2000/svg" viewBox="0 0 90 90"><defs><style>.cls-1{fill:#1d4f94;stroke:#1d4f94;}.cls-1,.cls-2{stroke-miterlimit:10;}.cls-2{fill:#fff;stroke:#fff;}</style></defs><path class="cls-1" d="M40.38,75.18H23.25a5.92,5.92,0,0,1-5.92-5.92l.45-36.17a16.45,16.45,0,0,1,11.65-9.54H35.7A14.27,14.27,0,0,1,46.3,33V69.26A5.92,5.92,0,0,1,40.38,75.18Z"/><rect class="cls-1" x="27.4" y="18.98" width="9.98" height="5.05" rx="1.53"/><polygon class="cls-1" points="57.83 37.28 63.14 37.28 60.48 46.35 57.83 55.41 55.18 46.35 52.53 37.28 57.83 37.28"/><rect class="cls-1" x="52.53" y="7.41" width="10.61" height="34.98" rx="4.19"/><rect class="cls-1" x="49.26" y="14.52" width="16.77" height="3.86" rx="1.93"/><rect class="cls-1" x="51.08" y="12.81" width="13.5" height="2.09" rx="1.04"/><path class="cls-1" d="M59,73.26a4.14,4.14,0,0,1-3.22-.4,3.65,3.65,0,0,1-1.23-1.27c.38-1.87.77-3.74,1.15-5.61L57,59.93l2.19,5.78L61,70.64A3.18,3.18,0,0,1,60.48,72,3.46,3.46,0,0,1,59,73.26Z"/><rect class="cls-2" x="23.32" y="42.92" width="16.71" height="9.55"/></svg>