<svg id="Capa_1" data-name="Capa 1" xmlns="http://www.w3.org/2000/svg" viewBox="0 0 57.27 65.62"><defs><style>.cls-1{fill:#5eba98;stroke:#35b081;stroke-miterlimit:1;stroke-width:0.25px;}.cls-2{font-size:8px;fill:#37b081;stroke:#37b081;stroke-miterlimit:10;stroke-width:0.3px;font-family:MyriadPro-Regular, Myriad Pro;letter-spacing:0.11em;}.cls-3{letter-spacing:0.11em;}.cls-4{fill:#f6f6f6;}</style></defs><circle class="cls-1" cx="28.63" cy="21.78" r="21.66"/><text class="cls-2" transform="translate(9.2 54.26)">R<tspan class="cls-3" x="5.18" y="0">ealizado</tspan></text><path class="cls-4" d="M33.86,37.84c1,.22,1.89.5,2.81.79s1.81.61,2.69,1,1.77.68,2.62,1.09l2.56,1.18-3.11.65,1.77-3c.61-1,1.27-2,1.9-2.94s1.31-1.93,2-2.87,1.34-1.91,2.09-2.8c1.44-1.84,3-3.63,4.59-5.34a45.41,45.41,0,0,1,5.28-4.86l.25.17c-1.3,1.94-2.57,3.89-3.89,5.82l-3.94,5.78-3.94,5.78-4,5.74-.14.2-.21-.13c-3.17-2-6.34-4-9.48-6Z" transform="translate(-17.85 -9.8)"/></svg>