<svg id="Capa_1" data-name="Capa 1" xmlns="http://www.w3.org/2000/svg" viewBox="0 0 90 90"><defs><style>.cls-1{fill:#02a7b5;stroke:#02a7b5;}.cls-1,.cls-2{stroke-miterlimit:10;}.cls-2{fill:#fff;stroke:#fff;stroke-width:3px;}</style></defs><circle class="cls-1" cx="45" cy="45" r="43.11"/><rect class="cls-2" x="17.34" y="29.24" width="56.53" height="32.73" rx="2.52"/><rect class="cls-2" x="31.07" y="22.4" width="28.96" height="9.11" rx="2.64"/><rect class="cls-1" x="13.79" y="43.02" width="62.41" height="1.37"/><polygon class="cls-1" points="63.01 50.73 65.16 54.44 67.3 58.15 63.01 58.15 58.73 58.15 60.87 54.44 63.01 50.73"/><circle class="cls-1" cx="45.54" cy="54.44" r="3.91"/><polygon class="cls-1" points="31.11 50.85 26.97 50.85 24.9 54.44 26.97 58.03 31.11 58.03 33.19 54.44 31.11 50.85"/><rect class="cls-1" x="24.22" y="41.05" width="3.67" height="6.03" rx="0.27"/><rect class="cls-1" x="62.07" y="41.05" width="3.67" height="6.03" rx="0.27"/><rect class="cls-1" x="33.19" y="23.37" width="24.99" height="3.58" rx="0.21"/></svg>