<svg id="Capa_1" data-name="Capa 1" xmlns="http://www.w3.org/2000/svg" viewBox="0 0 90 90"><defs><style>.cls-1{fill:#02a7b5;stroke:#02a7b5;}.cls-1,.cls-2{stroke-miterlimit:10;}.cls-2{fill:#fff;stroke:#fff;}</style></defs><circle class="cls-1" cx="45" cy="45" r="43.11"/><path class="cls-2" d="M76.11,20a5.15,5.15,0,0,0-7.29.26L38,53.38a15.43,15.43,0,0,1,8,6.5L76.38,27.27A5.15,5.15,0,0,0,76.11,20Zm-3.88,6a2,2,0,1,1,2-2A2,2,0,0,1,72.23,26Z"/><path class="cls-2" d="M38,53.38a15.23,15.23,0,0,0-5.08-.88,15.38,15.38,0,0,0-14,21.72l7.76-8.34A5.15,5.15,0,0,1,34,65.62L36.48,68a5.15,5.15,0,0,1,.26,7.29l-7.12,7.65a15.57,15.57,0,0,0,3.29.35A15.37,15.37,0,0,0,38,53.38Z"/><path class="cls-2" d="M38.22,15.46l-17.36.07L12.24,30.6l8.74,15,17.36-.07L47,30.46ZM36.91,30.53a7.31,7.31,0,1,1-7.31-7.31A7.31,7.31,0,0,1,36.91,30.53Z"/><circle class="cls-1" cx="72.23" cy="24.63" r="2.63"/><circle class="cls-1" cx="29.6" cy="30.8" r="9.03"/></svg>