<svg id="Capa_1" data-name="Capa 1" xmlns="http://www.w3.org/2000/svg" viewBox="0 0 90 90"><defs><style>.cls-1{fill:#1d4f94;}.cls-1,.cls-2{stroke:#1d4f94;stroke-miterlimit:10;}.cls-2{fill:#fff;}</style></defs><path class="cls-1" d="M80.59,13.1a6,6,0,0,0-8.49.31L36.2,52a17.85,17.85,0,0,1,9.36,7.57l35.33-38A6,6,0,0,0,80.59,13.1Zm-4.52,7a2.28,2.28,0,1,1,2.28-2.28A2.28,2.28,0,0,1,76.07,20.13Z"/><path class="cls-2" d="M76.07,15.57a2.28,2.28,0,1,0,2.28,2.28A2.28,2.28,0,0,0,76.07,15.57Z"/><path class="cls-1" d="M36.2,52A17.89,17.89,0,0,0,14,76.26l9-9.72a6,6,0,0,1,8.49-.3L34.44,69a6,6,0,0,1,.3,8.5l-8.28,8.9A17.9,17.9,0,0,0,36.2,52Z"/><path class="cls-1" d="M36.47,7.84l-20.21.08-10,17.54L16.4,42.92l20.2-.08,10-17.54ZM34.94,25.38a8.51,8.51,0,1,1-8.51-8.5A8.51,8.51,0,0,1,34.94,25.38Z"/><circle class="cls-2" cx="26.43" cy="25.38" r="8.51" transform="translate(-5.12 6.75) rotate(-13.28)"/></svg>