<svg id="Capa_1" data-name="Capa 1" xmlns="http://www.w3.org/2000/svg" viewBox="0 0 90 90"><defs><style>.cls-1{fill:#1d4f94;}.cls-1,.cls-2{stroke:#1d4f94;stroke-miterlimit:10;}.cls-2{fill:#fff;}</style></defs><path class="cls-1" d="M71.6,23.41a3.26,3.26,0,0,0-3.27,3.27V41.57a3.27,3.27,0,0,0,6.54,0V26.68A3.27,3.27,0,0,0,71.6,23.41Z"/><path class="cls-1" d="M60.88,24.87a1.47,1.47,0,0,0-1.47-1.48h-5.2V17.62h9.34A1.47,1.47,0,0,0,65,16.14v-.56a1.47,1.47,0,0,0-1.47-1.47H54.21V13.6a1.23,1.23,0,0,0-2.46,0v.51H42a1.47,1.47,0,0,0-1.48,1.47v.56A1.48,1.48,0,0,0,42,17.62h9.79v5.77h-5.2a1.48,1.48,0,0,0,0,2.95H29.86a12.22,12.22,0,0,0-7.32,2.28,7,7,0,0,0-3,5.5,6.33,6.33,0,0,0,.05.76,6.3,6.3,0,0,0-.05.75V49.27H17.06a1.93,1.93,0,0,0-1.93,1.93V53A1.93,1.93,0,0,0,17.06,55H37.6A1.93,1.93,0,0,0,39.53,53V51.2a1.93,1.93,0,0,0-1.93-1.93H35.16V41.91H67.51V26.34h-8.1A1.47,1.47,0,0,0,60.88,24.87Z"/><path class="cls-1" d="M27.52,59q-3.21,5.51-6.41,11a7.65,7.65,0,0,0-.94,3A7.08,7.08,0,0,0,20.54,76c-.47-2.06,1.13-4.14,2-4.08s.31,2.66,2.52,3.88,5.12-.09,5.56.61-1.91,3.13-5,3.12a5.45,5.45,0,0,1-4.79-2.77,5.33,5.33,0,0,0,2,2.77,6,6,0,0,0,4.64.9,7.3,7.3,0,0,0,4.66-1.86,6.8,6.8,0,0,0,1.71-2.51,8.55,8.55,0,0,0,.74-3.33,8.05,8.05,0,0,0-.69-3.31Z"/><path class="cls-2" d="M25.62,79.56c3.05,0,5.41-2.4,5-3.12s-3.37.6-5.56-.61S23.42,72,22.5,72s-2.43,2-2,4.08a3.17,3.17,0,0,0,.12.41c.05.12.11.23.17.35A5.45,5.45,0,0,0,25.62,79.56Z"/></svg>