<svg id="Capa_1" data-name="Capa 1" xmlns="http://www.w3.org/2000/svg" viewBox="0 0 90 90"><defs><style>.cls-1{fill:#02a7b5;stroke:#02a7b5;}.cls-1,.cls-2{stroke-miterlimit:10;}.cls-2{fill:#fff;stroke:#fff;}</style></defs><circle class="cls-1" cx="45" cy="45" r="43.11"/><path class="cls-2" d="M71.6,23.41a3.26,3.26,0,0,0-3.27,3.27V41.57a3.27,3.27,0,0,0,6.54,0V26.68A3.27,3.27,0,0,0,71.6,23.41Z"/><path class="cls-2" d="M60.88,24.87a1.47,1.47,0,0,0-1.47-1.48h-5.2V17.62h9.34A1.47,1.47,0,0,0,65,16.14v-.56a1.47,1.47,0,0,0-1.47-1.47H54.21V13.6a1.23,1.23,0,0,0-2.46,0v.51H42a1.47,1.47,0,0,0-1.48,1.47v.56A1.48,1.48,0,0,0,42,17.62h9.79v5.77h-5.2a1.48,1.48,0,0,0,0,2.95H29.86a12.22,12.22,0,0,0-7.32,2.28,7,7,0,0,0-3,5.5,6.33,6.33,0,0,0,.05.76,6.3,6.3,0,0,0-.05.75V49.27H17.06a1.93,1.93,0,0,0-1.93,1.93V53A1.93,1.93,0,0,0,17.06,55H37.6A1.93,1.93,0,0,0,39.53,53V51.2a1.93,1.93,0,0,0-1.93-1.93H35.16V41.91H67.51V26.34h-8.1A1.47,1.47,0,0,0,60.88,24.87Z"/><path class="cls-2" d="M26.21,60.29Q23.49,65,20.76,69.65a6.58,6.58,0,0,0-.8,2.53,6.17,6.17,0,0,0,.32,2.6c-.4-1.75,1-3.51,1.67-3.46s.26,2.26,2.14,3.29,4.35-.07,4.72.53-1.62,2.65-4.21,2.65a4.62,4.62,0,0,1-4.07-2.36,4.52,4.52,0,0,0,1.66,2.36,5.12,5.12,0,0,0,3.94.76,6.15,6.15,0,0,0,4-1.57,5.74,5.74,0,0,0,1.45-2.15A7,7,0,0,0,32.17,72a6.65,6.65,0,0,0-.59-2.82Z"/><rect class="cls-1" x="22.68" y="51.59" width="9.49" height="0.59" rx="0.21"/><rect class="cls-1" x="48.46" y="15.51" width="9.49" height="0.59" rx="0.21"/></svg>