<svg id="Capa_1" data-name="Capa 1" xmlns="http://www.w3.org/2000/svg" viewBox="0 0 90 90"><defs><style>.cls-1{fill:#02a7b5;stroke:#02a7b5;stroke-miterlimit:10;}.cls-2{fill:#fff;}</style></defs><circle class="cls-1" cx="45" cy="45" r="43.11"/><path class="cls-2" d="M74.49,72.84a113.81,113.81,0,0,1-13-7A39.44,39.44,0,0,1,54.15,60c-2.09-2.21-3.93-5.29-2.83-8.4.87-2.45,3.13-4.19,5.28-5.5a79,79,0,0,1,8.71-4.28c2.92-1.32,11.74-4.55,8.73-9.21-2.06-3.18-6.54-4.72-9.89-6a125.36,125.36,0,0,0-15.93-4.44,32,32,0,0,0-7-.87c-.23,0-1.46-.08-1.5.24s1.36.59,1.4.6a118.57,118.57,0,0,1,13.35,3.63c3.14,1.09,7,2.42,9.24,5,4,4.53-4.28,7.84-7.3,9.22s-5.88,2.57-8.66,4.17c-2.29,1.32-4.77,3-6,5.4-1.46,2.9-.2,5.92,1.71,8.27a33,33,0,0,0,7.25,6.29A106.46,106.46,0,0,0,64.88,72a18,18,0,0,0,6.05,1.18,16.72,16.72,0,0,0,3,.09c.12,0,1.1-.13.56-.39Z"/><path class="cls-2" d="M49.46,73.67a124.69,124.69,0,0,1-13.82-7,41,41,0,0,1-7.88-5.91c-2.14-2.16-4.11-5.24-2.9-8.36,1-2.54,3.47-4.24,5.74-5.53a90,90,0,0,1,9.3-4.29c2.88-1.23,12.35-4.49,9-9.19a11.49,11.49,0,0,0-4-3.2,45.64,45.64,0,0,0-6.82-2.84,149.63,149.63,0,0,0-17.43-4.51,23.34,23.34,0,0,0-6.81-.63c-.3,0-.88,0-.56.4s1.78.54,2.24.64c2.15.45,4.2.9,6.78,1.56,2.29.57,4.54,1.21,6.78,1.95,3.23,1.08,7.21,2.35,9.58,5,4.14,4.56-4.84,7.89-7.78,9.15-3.14,1.35-6.34,2.6-9.34,4.24-2.38,1.31-5,3-6.31,5.45-1.5,2.92-.07,5.91,1.9,8.2A34.33,34.33,0,0,0,24.82,65a116.29,116.29,0,0,0,15,7.8,19.12,19.12,0,0,0,6,1.18,16.72,16.72,0,0,0,3,.09c.11,0,1.11-.15.56-.39Z"/><path class="cls-2" d="M56.5,73.45C50.68,70,44.32,66,40.25,60.46c-1.74-2.38-3.06-5.34-2.23-8.32,1.37-5,7.14-7.6,11.25-9.94,3-1.68,9-4.68,6.86-9-1.46-2.92-5.05-4.63-7.87-5.9A85.43,85.43,0,0,0,36,23a12.6,12.6,0,0,0-3.51-.43c-.79,0-.95.17-.05.42a76.78,76.78,0,0,1,11.05,3.83c2.63,1.19,5.82,2.7,7.42,5.23,2.78,4.38-3,7.5-6.14,9.27-4.1,2.34-9.74,4.84-11.49,9.6-1,2.83-.08,5.74,1.5,8.16,4,6.08,10.85,10.29,17,13.93a7.71,7.71,0,0,0,3,.59c.29,0,2,0,1.78-.15Z"/></svg>