<svg id="Capa_1" data-name="Capa 1" xmlns="http://www.w3.org/2000/svg" viewBox="0 0 90 90"><defs><style>.cls-1{fill:none;}.cls-1,.cls-4{stroke:#1d4f94;stroke-miterlimit:10;stroke-width:2px;}.cls-2{fill:#fff;}.cls-3,.cls-4{fill:#1d4f94;}</style></defs><line class="cls-1" x1="67.93" y1="22.43" x2="67.93" y2="71.56"/><rect class="cls-2" x="61.33" y="64.58" width="13.2" height="13.2"/><path class="cls-3" d="M60.33,78.79V63.58h15.2V78.79Zm2-13.21V76.79h11.2V65.58Z"/><line class="cls-3" x1="61.07" y1="71.29" x2="11.88" y2="71.61"/><line class="cls-1" x1="61.07" y1="71.29" x2="27.82" y2="71.5"/><polygon class="cls-2" points="12.81 61.68 29.62 71.55 12.94 81.63 12.81 61.68"/><path class="cls-3" d="M11.8,59.93l19.77,11.6L12,83.39ZM27.66,71.56,13.82,63.44l.11,16.42Z"/><line class="cls-4" x1="21.86" y1="18.57" x2="21.86" y2="67.21"/><line class="cls-1" x1="21.72" y1="18.57" x2="68.1" y2="18.57"/><path class="cls-3" d="M22.09,26.09a7.52,7.52,0,1,1,7.52-7.52A7.52,7.52,0,0,1,22.09,26.09Z"/><path class="cls-3" d="M78.42,23.23a2.42,2.42,0,0,1-3.86,1.94L68.7,19.3a.85.85,0,0,1-.46.28l2,7.39.16.6a2.42,2.42,0,0,1-4.5,1.52,2.46,2.46,0,0,1-.32-1.44v0l.2-.74,0-.05,0,0,0,0,1.9-7.19a.9.9,0,0,1-.48-.28l-5.84,5.85-.28.18a2.42,2.42,0,0,1-2.42-4.2A1.35,1.35,0,0,1,59,21h0l.66-.18h.06l0,0,7.18-1.95a1.26,1.26,0,0,1,0-.28,1.35,1.35,0,0,1,0-.28l-7.36-2-.6-.16-.3-.15a2.44,2.44,0,0,1-.88-3.32,2.39,2.39,0,0,1,3.3-.87,2.2,2.2,0,0,1,.28.18l.24.21,5.6,5.61a.81.81,0,0,1,.46-.29l-2-7.34-.18-.62v0a1.23,1.23,0,0,1,0-.28,2.43,2.43,0,0,1,4.86,0,1.62,1.62,0,0,1,0,.32v0l0,0-.12.42,0,.12-1.94,7.34a.81.81,0,0,1,.46.29l5.46-5.47.3-.3a2.42,2.42,0,0,1,3.64,3.06,2.5,2.5,0,0,1-1.16,1.05h0l-.6.16-7.34,2a1.35,1.35,0,0,1,0,.28,1.26,1.26,0,0,1,0,.28l7.38,2h.08l.5.15A2.42,2.42,0,0,1,78.42,23.23Z"/></svg>