<svg id="Capa_1" data-name="Capa 1" xmlns="http://www.w3.org/2000/svg" viewBox="0 0 90 90"><defs><style>.cls-1{fill:#02a7b5;stroke:#02a7b5;}.cls-1,.cls-2,.cls-4{stroke-miterlimit:10;}.cls-2{fill:none;}.cls-2,.cls-4{stroke:#fff;stroke-width:2px;}.cls-3,.cls-4{fill:#fff;}</style></defs><circle class="cls-1" cx="45" cy="45" r="43.11"/><line class="cls-2" x1="65.68" y1="22.65" x2="65.68" y2="64.77"/><rect class="cls-3" x="59.08" y="57.79" width="13.2" height="13.2"/><path class="cls-3" d="M58.08,72V56.79h15.2V72Zm2-13.2V70h11.2V58.79Z"/><line class="cls-3" x1="59.68" y1="65.43" x2="16.61" y2="65.71"/><line class="cls-2" x1="59.68" y1="65.43" x2="32.55" y2="65.6"/><polygon class="cls-3" points="17.54 55.79 34.35 65.65 17.67 75.73 17.54 55.79"/><path class="cls-3" d="M16.53,54,36.31,65.64,16.68,77.5ZM32.4,65.66,18.56,57.54,18.66,74Z"/><line class="cls-4" x1="25.35" y1="19.28" x2="25.35" y2="61.86"/><line class="cls-2" x1="26.11" y1="19.28" x2="64.54" y2="19.28"/><path class="cls-3" d="M26.49,26.8A7.52,7.52,0,1,1,34,19.28,7.52,7.52,0,0,1,26.49,26.8Z"/><path class="cls-3" d="M74.86,23.93A2.42,2.42,0,0,1,71,25.87L65.14,20a.85.85,0,0,1-.46.28l2,7.38.16.6a2.42,2.42,0,0,1-4.5,1.52A2.46,2.46,0,0,1,62,28.35v0l.2-.74,0,0,0,0,0,0,1.9-7.18a.9.9,0,0,1-.48-.28l-5.84,5.84-.28.18a2.42,2.42,0,0,1-2.42-4.2,2,2,0,0,1,.3-.14h0l.66-.18h.06l0,0,7.18-1.94a1,1,0,0,1,0-.56L56,17l-.6-.16a2,2,0,0,1-.3-.14,2.44,2.44,0,0,1-.88-3.32,2.4,2.4,0,0,1,3.3-.88l.28.18.24.22,5.6,5.6a.85.85,0,0,1,.46-.28l-2-7.34L62,10.29v0A1.23,1.23,0,0,1,62,10a2.43,2.43,0,0,1,4.86,0,1.62,1.62,0,0,1,0,.32v0l0,0-.12.42,0,.12-1.94,7.34a.85.85,0,0,1,.46.28l5.46-5.46.3-.3a2.42,2.42,0,1,1,2.48,4.1h0l-.6.16-7.34,2a1,1,0,0,1,0,.56l7.38,2h.08l.5.14A2.43,2.43,0,0,1,74.86,23.93Z"/></svg>