<svg id="Capa_1" data-name="Capa 1" xmlns="http://www.w3.org/2000/svg" viewBox="0 0 90 90"><defs><style>.cls-1,.cls-3{fill:#02a7b5;}.cls-1,.cls-2,.cls-3{stroke:#02a7b5;}.cls-1,.cls-2,.cls-3,.cls-4{stroke-miterlimit:10;}.cls-2,.cls-4{fill:#fff;}.cls-3,.cls-4{stroke-width:0.5px;}.cls-4{stroke:#fff;}</style></defs><circle class="cls-1" cx="45.54" cy="45" r="43.11"/><path class="cls-2" d="M50.38,30.8H24L10.75,52.66,24,74.52H50.38L63.59,52.66ZM37.17,65.53A12.87,12.87,0,1,1,50,52.66,12.87,12.87,0,0,1,37.17,65.53Z"/><path class="cls-2" d="M76.24,18.94H72.75v-.59A1.39,1.39,0,0,0,71.36,17h-6a1.48,1.48,0,0,0-1.48-1.48H49.46A1.48,1.48,0,0,0,48,17H41.27a1.38,1.38,0,0,0-1.38,1.39v.59H36.61a3,3,0,0,0,0,6h.69A7.32,7.32,0,0,0,37,27.08V50.92a7.51,7.51,0,0,0,7.51,7.51H68.35a7.51,7.51,0,0,0,7.51-7.51V27.08A7.32,7.32,0,0,0,75.55,25h.69a3,3,0,0,0,0-6ZM50.61,49.8a1.85,1.85,0,0,1-1.84,1.85H48.6a1.84,1.84,0,0,1-1.84-1.85V29.51a1.84,1.84,0,0,1,1.84-1.84h.17a1.84,1.84,0,0,1,1.84,1.84Zm8.2,0A1.84,1.84,0,0,1,57,51.65H56.8A1.84,1.84,0,0,1,55,49.8V29.51a1.84,1.84,0,0,1,1.84-1.84H57a1.84,1.84,0,0,1,1.84,1.84Zm1-32.8a.27.27,0,0,1-.27.27H53.29A.27.27,0,0,1,53,17v-.08a.27.27,0,0,1,.27-.27h6.27a.27.27,0,0,1,.27.27Zm7.48,32.8a1.84,1.84,0,0,1-1.84,1.85H65.3a1.84,1.84,0,0,1-1.84-1.85V29.51a1.84,1.84,0,0,1,1.84-1.84h.17a1.84,1.84,0,0,1,1.84,1.84Z"/><rect class="cls-1" x="46.76" y="27.67" width="3.85" height="23.98" rx="1.84"/><rect class="cls-1" x="54.96" y="27.67" width="3.85" height="23.98" rx="1.84"/><rect class="cls-1" x="63.46" y="27.67" width="3.85" height="23.98" rx="1.84"/><rect class="cls-3" x="53.02" y="16.65" width="6.82" height="0.62" rx="0.27"/><rect class="cls-4" x="48.51" y="15.82" width="16.3" height="3.52" rx="0.89"/><rect class="cls-1" x="51.8" y="17.16" width="9.49" height="0.59" rx="0.21"/></svg>