<svg id="Capa_1" data-name="Capa 1" xmlns="http://www.w3.org/2000/svg" viewBox="0 0 90 90"><defs><style>.cls-1{fill:#02a7b5;}.cls-1,.cls-2{stroke:#02a7b5;stroke-miterlimit:10;}.cls-2{fill:#fff;}</style></defs><circle class="cls-1" cx="45" cy="45" r="43.11"/><path class="cls-2" d="M41.61,69.53h-15a5.19,5.19,0,0,1-5.19-5.2l.39-31.75a14.58,14.58,0,0,1,4.94-6.06A14.42,14.42,0,0,1,32,24.21h5.5a12.75,12.75,0,0,1,6.16,3.29,12.62,12.62,0,0,1,3.14,5v31.8A5.19,5.19,0,0,1,41.61,69.53Z"/><rect class="cls-2" x="30.21" y="20.2" width="8.76" height="4.43" rx="1.53"/><polygon class="cls-2" points="56.92 36.27 61.58 36.27 59.25 44.22 56.92 52.18 54.59 44.22 52.27 36.27 56.92 36.27"/><rect class="cls-2" x="52.27" y="10.05" width="9.31" height="30.7" rx="4.19"/><rect class="cls-2" x="49.4" y="16.29" width="14.72" height="3.39" rx="1.69"/><rect class="cls-2" x="51" y="14.78" width="11.85" height="1.83" rx="0.92"/><path class="cls-2" d="M59.59,68.88a5.63,5.63,0,0,1-4.41-.54,5,5,0,0,1-1.69-1.75c.53-2.56,1.06-5.11,1.58-7.67l1.78-8.28,3,7.92,2.43,6.75a4.58,4.58,0,0,1-.69,1.88A4.65,4.65,0,0,1,59.59,68.88Z"/><rect class="cls-1" x="26.63" y="41.22" width="14.67" height="8.38"/></svg>