<svg id="Capa_1" data-name="Capa 1" xmlns="http://www.w3.org/2000/svg" viewBox="0 0 90 90"><defs><style>.cls-1{fill:#1d4f94;}</style></defs><path class="cls-1" d="M83.51,76.19a148.72,148.72,0,0,1-17.3-9.25,50.54,50.54,0,0,1-9.7-7.65c-2.69-2.86-5.07-6.83-3.61-10.84,1.15-3.18,4.11-5.41,6.9-7.1A104,104,0,0,1,71.43,35.7c3.3-1.47,6.79-2.93,9.64-5.21,2.13-1.71,3.47-4.13,1.82-6.68a14,14,0,0,0-5-4.19,53.57,53.57,0,0,0-8.14-3.57,171.35,171.35,0,0,0-21.52-5.84,22.67,22.67,0,0,0-6.81-.63c-.3,0-.88,0-.56.4s1.77.53,2.24.64c-.75-.17.5.11.52.11l1.15.26,2.33.55c1.56.37,3.13.77,4.68,1.18,2.79.74,5.55,1.55,8.28,2.49,4.17,1.44,9.27,3.17,12.29,6.57,5.23,5.89-5.55,10.21-9.49,12s-7.79,3.35-11.48,5.43c-3,1.71-6.34,3.86-8,7.05C41.47,50,43.12,53.93,45.62,57a43.18,43.18,0,0,0,9.65,8.22A141.52,141.52,0,0,0,73.9,75.32a18,18,0,0,0,6,1.17,15.85,15.85,0,0,0,3,.1c.12,0,1.1-.14.56-.4Z"/><path class="cls-1" d="M50.47,77.27a163,163,0,0,1-18.25-9.18,53.08,53.08,0,0,1-10.38-7.67c-2.81-2.79-5.48-6.77-3.92-10.86,1.25-3.27,4.43-5.46,7.35-7.12a109.8,109.8,0,0,1,12.28-5.63c3.53-1.47,7.24-2.92,10.32-5.24,2.16-1.63,3.69-4,2-6.58a12.75,12.75,0,0,0-4.36-3.73,47,47,0,0,0-7.62-3.43,150.14,150.14,0,0,0-19.31-5.37q-2.71-.6-5.44-1.17a23.06,23.06,0,0,0-6.82-.63c-.29,0-.88,0-.55.39s1.77.55,2.23.64c3.26.67,5.69,1.21,9.18,2.08,3.07.76,6.11,1.59,9.12,2.57a57.59,57.59,0,0,1,7.81,3.08A17.55,17.55,0,0,1,39.37,23C44.74,29,32.8,33.29,29,34.9c-4,1.71-8.15,3.3-12,5.36-3.19,1.68-6.75,3.82-8.52,7.09-2.06,3.82-.2,7.74,2.42,10.74A44.15,44.15,0,0,0,21,66.22,153.71,153.71,0,0,0,40.86,76.4a19.45,19.45,0,0,0,6,1.17,16.73,16.73,0,0,0,3,.1c.11,0,1.11-.16.56-.4Z"/><path class="cls-1" d="M60.54,77.05a113.57,113.57,0,0,1-13.73-9.23,42.94,42.94,0,0,1-7.64-7.54c-2.33-3.09-4.14-7-3.08-10.9,1.76-6.47,9.28-9.87,14.62-12.85,3.85-2.15,12.14-6.07,9.36-11.8-1.83-3.78-6.48-6-10.1-7.62A110.43,110.43,0,0,0,33.64,11.5a13,13,0,0,0-3.51-.44c-.79,0-.95.18-.05.42A107.79,107.79,0,0,1,44.5,16.37c3.56,1.56,7.84,3.52,10.09,6.86,3.87,5.72-3.86,9.85-7.94,12.15a99.89,99.89,0,0,0-9,5.39c-2.57,1.84-5.09,4.11-6.22,7.14-1.38,3.65-.12,7.45,2,10.57A38.59,38.59,0,0,0,41,66.55,109.7,109.7,0,0,0,55.73,76.62a7.78,7.78,0,0,0,3,.58c.28,0,2,0,1.78-.15Z"/></svg>