<svg id="Capa_1" data-name="Capa 1" xmlns="http://www.w3.org/2000/svg" viewBox="0 0 90 90"><defs><style>.cls-1{fill:#224074;stroke:#224074;}.cls-1,.cls-3{stroke-miterlimit:10;}.cls-2{fill:#02a7b5;stroke:#02a7b5;stroke-linecap:round;stroke-linejoin:round;stroke-width:0;}.cls-3{fill:#fff;stroke:#fff;}</style></defs><path class="cls-1" d="M21.33,10.7V23.24H8.78V65.41h46.8V10.7Zm12,8.53H46.26a.72.72,0,1,1,0,1.44H33.34a.72.72,0,1,1,0-1.44ZM27.18,55.36H13.94a.72.72,0,1,1,0-1.44H27.18a.72.72,0,0,1,0,1.44Zm0-3.64H13.94a.73.73,0,0,1,0-1.45H27.18a.73.73,0,0,1,0,1.45Zm-12.26-9a.72.72,0,0,1,.72-.72H26.3a.72.72,0,0,1,0,1.44H15.64A.72.72,0,0,1,14.92,42.69Zm6.26-1.42a8,8,0,0,1-8-8c0-.22,0-.45,0-.67h7.93V25.34a8,8,0,0,1,0,15.93Zm29.35,20H32.9a.72.72,0,0,1,0-1.44H50.53a.72.72,0,1,1,0,1.44ZM33.61,57.38V48.24h2.25v9.14Zm3.39,0V43h2.25v14.4Zm3.52,0V43h2.25v14.4Zm3.6,0V51h2.25v6.38Zm6.41-18.66H33.34a.72.72,0,1,1,0-1.44H50.53a.72.72,0,0,1,0,1.44Zm0-4H33.34a.73.73,0,1,1,0-1.45H50.53a.73.73,0,0,1,0,1.45Zm0-4H33.34a.72.72,0,1,1,0-1.44H50.53a.72.72,0,0,1,0,1.44Z"/><line class="cls-2" x1="21.18" y1="10.54" x2="8.63" y2="23.08"/><path class="cls-3" d="M21.18,25.34v7.29H13.25c0,.22,0,.45,0,.67a8,8,0,1,0,8-8Z"/><path class="cls-3" d="M33.14,20.58H50.29c.53,0,1-.32,1-.72s-.43-.72-1-.72H33.14c-.53,0-1,.32-1,.72S32.61,20.58,33.14,20.58Z"/><path class="cls-3" d="M50.53,29.33H33.34a.72.72,0,1,0,0,1.44H50.53a.72.72,0,0,0,0-1.44Z"/><path class="cls-3" d="M50.53,33.3H33.34a.73.73,0,1,0,0,1.45H50.53a.73.73,0,0,0,0-1.45Z"/><path class="cls-3" d="M50.53,37.28H33.34a.72.72,0,1,0,0,1.44H50.53a.72.72,0,0,0,0-1.44Z"/><path class="cls-3" d="M27,48.31a.73.73,0,1,0,0-1.44H14a.73.73,0,1,0,0,1.44Z"/><rect class="cls-3" x="33.61" y="48.24" width="2.25" height="9.14"/><rect class="cls-3" x="37.33" y="42.98" width="2.25" height="14.4"/><rect class="cls-3" x="41.04" y="42.98" width="2.25" height="14.4"/><rect class="cls-3" x="44.62" y="51" width="2.25" height="6.39"/><path class="cls-3" d="M50.53,59.8H32.9a.72.72,0,0,0,0,1.44H50.53a.72.72,0,1,0,0-1.44Z"/><path class="cls-3" d="M27.18,50.27H13.94a.73.73,0,0,0,0,1.45H27.18a.73.73,0,0,0,0-1.45Z"/><path class="cls-3" d="M27.18,53.92H13.94a.72.72,0,1,0,0,1.44H27.18a.72.72,0,0,0,0-1.44Z"/><path class="cls-1" d="M77.69,29V26.85A1.72,1.72,0,0,0,76,25.12H71.12v-2.7H69.53v2.7H64.12a1.72,1.72,0,0,0-1.72,1.73V29a1.45,1.45,0,0,0,.07.35h-3v45.3A5.4,5.4,0,0,0,64.86,80H75.25a5.4,5.4,0,0,0,5.39-5.41V29.32h-3A1.45,1.45,0,0,0,77.69,29Z"/><rect class="cls-1" x="67.3" y="16.97" width="6.59" height="5.22"/><path class="cls-1" d="M81,16.77a.33.33,0,1,0,.33.32A.32.32,0,0,0,81,16.77Z"/><path class="cls-1" d="M80.36,20a.09.09,0,0,0-.08-.09.09.09,0,0,0-.09.09.09.09,0,0,0,.09.08A.09.09,0,0,0,80.36,20Z"/><path class="cls-1" d="M83.59,19.5a.43.43,0,1,0,0-.85.43.43,0,1,0,0,.85Z"/><circle class="cls-1" cx="83.97" cy="23.94" r="1.52"/><path class="cls-1" d="M77.41,20.25a.15.15,0,0,0,.15-.15.15.15,0,1,0-.3,0A.15.15,0,0,0,77.41,20.25Z"/><path class="cls-1" d="M49.52,75.5H14.16a3.43,3.43,0,1,0,0,6.85H49.52a3.43,3.43,0,1,0,0-6.85Z"/><rect class="cls-1" x="13.71" y="69.05" width="36.27" height="4.94" rx="1.69"/></svg>