<svg id="Capa_1" data-name="Capa 1" xmlns="http://www.w3.org/2000/svg" viewBox="0 0 90 90"><defs><style>.cls-1,.cls-2,.cls-3{fill:#02a7b5;}.cls-1,.cls-3,.cls-5{stroke:#02a7b5;}.cls-1,.cls-2,.cls-4,.cls-5{stroke-miterlimit:10;}.cls-2,.cls-4{stroke:#fff;}.cls-3{stroke-linecap:round;stroke-linejoin:round;stroke-width:0;}.cls-4,.cls-5{fill:#fff;}</style></defs><circle class="cls-1" cx="45" cy="45" r="43.11"/><path class="cls-2" d="M24.56,14V24.74H13.85v36h40V14Zm10.26,7.29h11a.61.61,0,0,1,.61.62.61.61,0,0,1-.61.61h-11a.61.61,0,0,1-.62-.61A.62.62,0,0,1,34.82,21.31ZM29.56,52.16H18.25a.61.61,0,0,1-.61-.61.61.61,0,0,1,.61-.62H29.56a.62.62,0,0,1,.62.62A.61.61,0,0,1,29.56,52.16Zm0-3.11H18.25a.61.61,0,0,1-.61-.62.61.61,0,0,1,.61-.61H29.56a.61.61,0,0,1,.62.61A.62.62,0,0,1,29.56,49.05ZM19.09,41.34a.62.62,0,0,1,.62-.62h9.1a.61.61,0,0,1,.61.62.61.61,0,0,1-.61.61h-9.1A.61.61,0,0,1,19.09,41.34Zm5.35-1.22a6.79,6.79,0,0,1-6.8-6.79,5.49,5.49,0,0,1,0-.58h6.77V26.53a6.8,6.8,0,0,1,0,13.59ZM49.49,57.18h-15a.62.62,0,0,1-.62-.62.61.61,0,0,1,.62-.61h15a.61.61,0,0,1,.62.61A.62.62,0,0,1,49.49,57.18ZM35.05,53.89V46.08H37v7.81Zm2.9,0V41.59h1.92v12.3Zm3,0V41.59h1.92v12.3Zm3.08,0V48.43H46v5.46ZM49.49,38H34.82a.62.62,0,0,1-.62-.62.61.61,0,0,1,.62-.61H49.49a.61.61,0,0,1,.62.61A.62.62,0,0,1,49.49,38Zm0-3.39H34.82a.62.62,0,0,1-.62-.62.61.61,0,0,1,.62-.61H49.49a.61.61,0,0,1,.62.61A.62.62,0,0,1,49.49,34.56Zm0-3.39H34.82a.62.62,0,0,1-.62-.62.61.61,0,0,1,.62-.61H49.49a.61.61,0,0,1,.62.61A.62.62,0,0,1,49.49,31.17Z"/><line class="cls-3" x1="24.44" y1="13.89" x2="13.72" y2="24.6"/><path class="cls-4" d="M24.44,26.53v6.22H17.67a5.49,5.49,0,0,0,0,.58,6.8,6.8,0,1,0,6.8-6.8Z"/><path class="cls-4" d="M34.65,22.46H49.29c.45,0,.82-.27.82-.61s-.37-.62-.82-.62H34.65c-.45,0-.82.28-.82.62S34.2,22.46,34.65,22.46Z"/><path class="cls-4" d="M49.49,29.94H34.82a.61.61,0,0,0-.62.61.62.62,0,0,0,.62.62H49.49a.62.62,0,0,0,.62-.62A.61.61,0,0,0,49.49,29.94Z"/><path class="cls-4" d="M49.49,33.33H34.82a.61.61,0,0,0-.62.61.62.62,0,0,0,.62.62H49.49a.62.62,0,0,0,.62-.62A.61.61,0,0,0,49.49,33.33Z"/><path class="cls-4" d="M49.49,36.72H34.82a.61.61,0,0,0-.62.61.62.62,0,0,0,.62.62H49.49a.62.62,0,0,0,.62-.62A.61.61,0,0,0,49.49,36.72Z"/><path class="cls-4" d="M29.43,46.14a.69.69,0,0,0,.75-.61.7.7,0,0,0-.75-.62H18.31a.69.69,0,0,0-.75.62.69.69,0,0,0,.75.61Z"/><rect class="cls-4" x="35.05" y="46.08" width="1.92" height="7.81"/><rect class="cls-4" x="38.23" y="41.59" width="1.92" height="12.29"/><rect class="cls-4" x="41.4" y="41.59" width="1.92" height="12.29"/><rect class="cls-4" x="44.45" y="48.43" width="1.92" height="5.45"/><path class="cls-4" d="M49.49,56h-15a.61.61,0,0,0-.62.61.62.62,0,0,0,.62.62h15a.62.62,0,0,0,.62-.62A.61.61,0,0,0,49.49,56Z"/><path class="cls-4" d="M29.56,47.82H18.25a.61.61,0,0,0-.61.61.61.61,0,0,0,.61.62H29.56a.62.62,0,0,0,.62-.62A.61.61,0,0,0,29.56,47.82Z"/><path class="cls-4" d="M29.56,50.93H18.25a.61.61,0,0,0-.61.62.61.61,0,0,0,.61.61H29.56a.61.61,0,0,0,.62-.61A.62.62,0,0,0,29.56,50.93Z"/><path class="cls-4" d="M72.69,29.62V27.81a1.47,1.47,0,0,0-1.47-1.47H67.08V24H65.72v2.31H61.1a1.47,1.47,0,0,0-1.47,1.47v1.81a1.55,1.55,0,0,0,.06.31H57.11V68.6a4.61,4.61,0,0,0,4.62,4.62H70.6a4.61,4.61,0,0,0,4.61-4.62V29.93H72.63A1.55,1.55,0,0,0,72.69,29.62Z"/><rect class="cls-4" x="63.82" y="19.38" width="5.62" height="4.46"/><path class="cls-4" d="M75.49,19.21a.28.28,0,0,0-.28.28.28.28,0,0,0,.56,0A.28.28,0,0,0,75.49,19.21Z"/><path class="cls-4" d="M75,21.92a.07.07,0,0,0-.07-.07.08.08,0,0,0-.08.07.09.09,0,0,0,.08.08A.08.08,0,0,0,75,21.92Z"/><path class="cls-4" d="M77.72,21.54a.36.36,0,1,0-.36-.36A.36.36,0,0,0,77.72,21.54Z"/><circle class="cls-4" cx="78.05" cy="25.33" r="1.3"/><path class="cls-4" d="M72.45,22.18a.13.13,0,1,0-.13-.13A.13.13,0,0,0,72.45,22.18Z"/><path class="cls-5" d="M48.64,69.35H18.45a2.93,2.93,0,0,0,0,5.86H48.64a2.93,2.93,0,0,0,0-5.86Z"/><rect class="cls-5" x="18.06" y="63.85" width="30.97" height="4.22" rx="1.44"/></svg>