<svg id="Capa_1" data-name="Capa 1" xmlns="http://www.w3.org/2000/svg" viewBox="0 0 90 90"><defs><style>.cls-1{fill:#1d4f94;}.cls-1,.cls-2{stroke:#1d4f94;}.cls-1,.cls-2,.cls-3{stroke-miterlimit:10;}.cls-2,.cls-3{fill:#fff;}.cls-3{stroke:#fff;}</style></defs><path class="cls-1" d="M51.46,29.18H22L7.19,53.6,22,78H51.46L66.22,53.6ZM36.71,68A14.38,14.38,0,1,1,51.09,53.6,14.38,14.38,0,0,1,36.71,68Z"/><circle class="cls-2" cx="36.71" cy="53.6" r="14.38"/><path class="cls-1" d="M80.35,15.93h-3.9v-.66a1.56,1.56,0,0,0-1.55-1.55H68.22a1.65,1.65,0,0,0-1.65-1.65H50.43a1.65,1.65,0,0,0-1.65,1.65H41.29a1.55,1.55,0,0,0-1.55,1.55v.66H36.08a3.37,3.37,0,1,0,0,6.74h.76A8.61,8.61,0,0,0,36.5,25V51.66a8.39,8.39,0,0,0,8.39,8.39H71.53a8.38,8.38,0,0,0,8.39-8.39V25a8.24,8.24,0,0,0-.34-2.35h.77a3.37,3.37,0,0,0,0-6.74ZM51.72,50.41a2.06,2.06,0,0,1-2.06,2.06h-.19a2.06,2.06,0,0,1-2.06-2.06V27.74a2.07,2.07,0,0,1,2.06-2.06h.19a2.06,2.06,0,0,1,2.06,2.06Zm9.16,0a2.06,2.06,0,0,1-2.06,2.06h-.18a2.06,2.06,0,0,1-2.06-2.06V27.74a2.06,2.06,0,0,1,2.06-2.06h.18a2.06,2.06,0,0,1,2.06,2.06ZM62,13.77a.29.29,0,0,1-.3.3h-7a.29.29,0,0,1-.3-.3v-.09a.29.29,0,0,1,.3-.3h7a.29.29,0,0,1,.3.3Zm8.36,36.64a2.07,2.07,0,0,1-2.07,2.06h-.18a2.06,2.06,0,0,1-2.06-2.06V27.74a2.06,2.06,0,0,1,2.06-2.06h.18a2.07,2.07,0,0,1,2.07,2.06Z"/><rect class="cls-2" x="47.41" y="25.68" width="4.31" height="26.79" rx="2.06"/><rect class="cls-2" x="56.58" y="25.68" width="4.31" height="26.79" rx="2.06"/><rect class="cls-2" x="66.07" y="25.68" width="4.31" height="26.79" rx="2.06"/><rect class="cls-3" x="54.41" y="13.38" width="7.62" height="0.7" rx="0.3"/></svg>